{"scene":0,"scenes":[{"nodes":[0]}],"asset":{"version":"2.0","generator":"https://github.com/mikedh/trimesh"},"accessors":[{"componentType":5125,"type":"SCALAR","bufferView":0,"count":15360,"max":[2561],"min":[0]},{"componentType":5126,"type":"VEC3","byteOffset":0,"bufferView":1,"count":2562,"max":[0.7200000286102295,0.5,2.069999933242798],"min":[-0.7200000286102295,-0.5,0.029999999329447746]},{"componentType":5121,"normalized":true,"type":"VEC4","byteOffset":0,"bufferView":2,"count":2562,"max":[7,7,7,255],"min":[7,7,7,255]},{"componentType":5125,"type":"SCALAR","bufferView":3,"count":3840,"max":[641],"min":[0]},{"componentType":5126,"type":"VEC3","byteOffset":0,"bufferView":4,"count":642,"max":[0.41999998688697815,-0.42500001192092896,1.850000023841858],"min":[-0.41999998688697815,-0.5249999761581421,0.5099999904632568]},{"componentType":5121,"normalized":true,"type":"VEC4","byteOffset":0,"bufferView":5,"count":642,"max":[20,20,20,255],"min":[20,20,20,255]},{"componentType":5126,"type":"VEC3","byteOffset":0,"bufferView":6,"count":2562,"max":[0.8999999761581421,0.699999988079071,3.119999885559082],"min":[-0.8999999761581421,-0.7400000095367432,1.6399999856948853]},{"componentType":5125,"type":"SCALAR","bufferView":7,"count":384,"max":[65],"min":[0]},{"componentType":5126,"type":"VEC3","byteOffset":0,"bufferView":8,"count":66,"max":[-0.2647574841976166,0.3087061941623688,3.8528170585632324],"min":[-0.9096537828445435,-0.36870619654655457,2.9097752571105957]},{"componentType":5121,"normalized":true,"type":"VEC4","byteOffset":0,"bufferView":9,"count":66,"max":[7,7,7,255],"min":[7,7,7,255]},{"componentType":5126,"type":"VEC3","byteOffset":0,"bufferView":10,"count":66,"max":[0.9096537828445435,0.3087061941623688,3.8528170585632324],"min":[0.2647574841976166,-0.36870619654655457,2.9097752571105957]},{"componentType":5126,"type":"VEC3","byteOffset":0,"bufferView":11,"count":66,"max":[-0.3738350570201874,-0.011784138157963753,3.4790802001953125],"min":[-0.7373033165931702,-0.3882158696651459,2.944763422012329]},{"componentType":5121,"normalized":true,"type":"VEC4","byteOffset":0,"bufferView":12,"count":66,"max":[91,45,31,255],"min":[91,45,31,255]},{"componentType":5126,"type":"VEC3","byteOffset":0,"bufferView":13,"count":66,"max":[0.7373033165931702,-0.011784138157963753,3.4790802001953125],"min":[0.3738350570201874,-0.3882158696651459,2.944763422012329]},{"componentType":5126,"type":"VEC3","byteOffset":0,"bufferView":14,"count":642,"max":[-0.11999999731779099,-0.6050000190734863,2.75],"min":[-0.5199999809265137,-0.7149999737739563,2.25]},{"componentType":5121,"normalized":true,"type":"VEC4","byteOffset":0,"bufferView":15,"count":642,"max":[112,214,91,255],"min":[112,214,91,255]},{"componentType":5126,"type":"VEC3","byteOffset":0,"bufferView":16,"count":642,"max":[-0.17499999701976776,-0.6729999780654907,2.690000057220459],"min":[-0.4650000035762787,-0.7369999885559082,2.309999942779541]},{"componentType":5121,"normalized":true,"type":"VEC4","byteOffset":0,"bufferView":17,"count":642,"max":[164,255,123,255],"min":[164,255,123,255]},{"componentType":5126,"type":"VEC3","byteOffset":0,"bufferView":18,"count":642,"max":[-0.2280000001192093,-0.7089999914169312,2.634999990463257],"min":[-0.41200000047683716,-0.7609999775886536,2.365000009536743]},{"componentType":5121,"normalized":true,"type":"VEC4","byteOffset":0,"bufferView":19,"count":642,"max":[1,1,1,255],"min":[1,1,1,255]},{"componentType":5125,"type":"SCALAR","bufferView":20,"count":960,"max":[161],"min":[0]},{"componentType":5126,"type":"VEC3","byteOffset":0,"bufferView":21,"count":162,"max":[-0.22300000488758087,-0.7300000190734863,2.6500000953674316],"min":[-0.2930000126361847,-0.800000011920929,2.5799999237060547]},{"componentType":5121,"normalized":true,"type":"VEC4","byteOffset":0,"bufferView":22,"count":162,"max":[255,255,255,255],"min":[255,255,255,255]},{"componentType":5126,"type":"VEC3","byteOffset":0,"bufferView":23,"count":642,"max":[0.5199999809265137,-0.6050000190734863,2.75],"min":[0.11999999731779099,-0.7149999737739563,2.25]},{"componentType":5126,"type":"VEC3","byteOffset":0,"bufferView":24,"count":642,"max":[0.4650000035762787,-0.6729999780654907,2.690000057220459],"min":[0.17499999701976776,-0.7369999885559082,2.309999942779541]},{"componentType":5126,"type":"VEC3","byteOffset":0,"bufferView":25,"count":642,"max":[0.41200000047683716,-0.7089999914169312,2.634999990463257],"min":[0.2280000001192093,-0.7609999775886536,2.365000009536743]},{"componentType":5126,"type":"VEC3","byteOffset":0,"bufferView":26,"count":162,"max":[0.4169999957084656,-0.7300000190734863,2.6500000953674316],"min":[0.34700000286102295,-0.800000011920929,2.5799999237060547]},{"componentType":5126,"type":"VEC3","byteOffset":0,"bufferView":27,"count":642,"max":[0.2199999988079071,-0.6150000095367432,2.369999885559082],"min":[-0.2199999988079071,-0.7450000047683716,2.109999895095825]},{"componentType":5126,"type":"VEC3","byteOffset":0,"bufferView":28,"count":162,"max":[0.06499999761581421,-0.7269999980926514,2.3450000286102295],"min":[-0.06499999761581421,-0.8029999732971191,2.255000114440918]},{"componentType":5121,"normalized":true,"type":"VEC4","byteOffset":0,"bufferView":29,"count":162,"max":[29,17,16,255],"min":[29,17,16,255]},{"componentType":5125,"type":"SCALAR","bufferView":30,"count":144,"max":[25],"min":[0]},{"componentType":5126,"type":"VEC3","byteOffset":0,"bufferView":31,"count":26,"max":[0.008999999612569809,-0.7760369777679443,2.260814905166626],"min":[-0.008999999612569809,-0.8039630651473999,2.1491851806640625]},{"componentType":5121,"normalized":true,"type":"VEC4","byteOffset":0,"bufferView":32,"count":26,"max":[29,17,16,255],"min":[29,17,16,255]},{"componentType":5125,"type":"SCALAR","bufferView":33,"count":96,"max":[17],"min":[0]},{"componentType":5126,"type":"VEC3","byteOffset":0,"bufferView":34,"count":18,"max":[-0.0792262852191925,-0.7740394473075867,2.3359487056732178],"min":[-0.7807736992835999,-0.8459605574607849,2.254051446914673]},{"componentType":5121,"normalized":true,"type":"VEC4","byteOffset":0,"bufferView":35,"count":18,"max":[215,215,215,255],"min":[215,215,215,255]},{"componentType":5126,"type":"VEC3","byteOffset":0,"bufferView":36,"count":18,"max":[0.7807736992835999,-0.7740394473075867,2.3359487056732178],"min":[0.0792262852191925,-0.8459605574607849,2.254051446914673]},{"componentType":5126,"type":"VEC3","byteOffset":0,"bufferView":37,"count":18,"max":[-0.07938916981220245,-0.7740412950515747,2.225968360900879],"min":[-0.7806107997894287,-0.8459587097167969,2.1740314960479736]},{"componentType":5126,"type":"VEC3","byteOffset":0,"bufferView":38,"count":18,"max":[0.7806107997894287,-0.7740412950515747,2.225968360900879],"min":[0.07938916981220245,-0.8459587097167969,2.1740314960479736]},{"componentType":5126,"type":"VEC3","byteOffset":0,"bufferView":39,"count":18,"max":[-0.07949673384428024,-0.7740431427955627,2.1159775257110596],"min":[-0.7805032730102539,-0.8459568619728088,2.094022512435913]},{"componentType":5126,"type":"VEC3","byteOffset":0,"bufferView":40,"count":18,"max":[0.7805032730102539,-0.7740431427955627,2.1159775257110596],"min":[0.07949673384428024,-0.8459568619728088,2.094022512435913]},{"componentType":5126,"type":"VEC3","byteOffset":0,"bufferView":41,"count":642,"max":[-0.05999999865889549,-0.1599999964237213,0.5400000214576721],"min":[-0.5,-0.5199999809265137,-0.019999999552965164]},{"componentType":5121,"normalized":true,"type":"VEC4","byteOffset":0,"bufferView":42,"count":642,"max":[7,7,7,255],"min":[7,7,7,255]},{"componentType":5126,"type":"VEC3","byteOffset":0,"bufferView":43,"count":642,"max":[0.5,-0.1599999964237213,0.5400000214576721],"min":[0.05999999865889549,-0.5199999809265137,-0.019999999552965164]},{"componentType":5126,"type":"VEC3","byteOffset":0,"bufferView":44,"count":642,"max":[-0.25999999046325684,0.17000000178813934,0.9800000190734863],"min":[-0.7799999713897705,-0.27000001072883606,0.14000000059604645]},{"componentType":5126,"type":"VEC3","byteOffset":0,"bufferView":45,"count":642,"max":[0.7799999713897705,0.17000000178813934,0.9800000190734863],"min":[0.25999999046325684,-0.27000001072883606,0.14000000059604645]},{"componentType":5125,"type":"SCALAR","bufferView":46,"count":288,"max":[49],"min":[0]},{"componentType":5126,"type":"VEC3","byteOffset":0,"bufferView":47,"count":50,"max":[-0.6622799038887024,0.18485040962696075,0.5702819228172302],"min":[-1.017720103263855,-0.134850412607193,0.19971808791160583]},{"componentType":5121,"normalized":true,"type":"VEC4","byteOffset":0,"bufferView":48,"count":50,"max":[7,7,7,255],"min":[7,7,7,255]},{"componentType":5126,"type":"VEC3","byteOffset":0,"bufferView":49,"count":50,"max":[-0.8335720300674438,0.18342554569244385,0.6747704148292542],"min":[-1.1964279413223267,-0.15342554450035095,0.36522960662841797]},{"componentType":5126,"type":"VEC3","byteOffset":0,"bufferView":50,"count":50,"max":[-0.7868530750274658,0.1548139899969101,0.8859008550643921],"min":[-1.16314697265625,-0.16481398046016693,0.5140991806983948]},{"componentType":5126,"type":"VEC3","byteOffset":0,"bufferView":51,"count":50,"max":[-0.6422244906425476,0.14447006583213806,0.9237590432167053],"min":[-0.9577754735946655,-0.17447006702423096,0.5562409162521362]},{"componentType":5126,"type":"VEC3","byteOffset":0,"bufferView":52,"count":642,"max":[-0.5450000166893005,0.17499999701976776,0.5049999952316284],"min":[-0.8550000190734863,-0.13500000536441803,0.19499999284744263]},{"componentType":5126,"type":"VEC3","byteOffset":0,"bufferView":53,"count":642,"max":[-0.824999988079071,0.1850000023841858,0.574999988079071],"min":[-1.1349999904632568,-0.125,0.26499998569488525]},{"componentType":5126,"type":"VEC3","byteOffset":0,"bufferView":54,"count":642,"max":[-0.8949999809265137,0.1550000011920929,0.7749999761581421],"min":[-1.2050000429153442,-0.1550000011920929,0.4650000035762787]},{"componentType":5126,"type":"VEC3","byteOffset":0,"bufferView":55,"count":642,"max":[-0.7450000047683716,0.14499999582767487,0.9350000023841858],"min":[-1.0549999475479126,-0.16500000655651093,0.625]},{"componentType":5126,"type":"VEC3","byteOffset":0,"bufferView":56,"count":642,"max":[-0.5450000166893005,0.13500000536441803,0.8550000190734863],"min":[-0.8550000190734863,-0.17499999701976776,0.5450000166893005]},{"componentType":5125,"type":"SCALAR","bufferView":57,"count":6144,"max":[1023],"min":[0]},{"componentType":5126,"type":"VEC3","byteOffset":0,"bufferView":58,"count":1024,"max":[1.062000036239624,0.21199999749660492,3.562000036239624],"min":[-1.062000036239624,0.18799999356269836,1.437999963760376]},{"componentType":5121,"normalized":true,"type":"VEC4","byteOffset":0,"bufferView":59,"count":1024,"max":[229,186,85,255],"min":[229,186,85,255]},{"componentType":5126,"type":"VEC3","byteOffset":0,"bufferView":60,"count":162,"max":[-0.9850000143051147,0.26499998569488525,2.565000057220459],"min":[-1.1150000095367432,0.13500000536441803,2.434999942779541]},{"componentType":5121,"normalized":true,"type":"VEC4","byteOffset":0,"bufferView":61,"count":162,"max":[229,186,85,255],"min":[229,186,85,255]},{"componentType":5125,"type":"SCALAR","bufferView":62,"count":1152,"max":[193],"min":[0]},{"componentType":5126,"type":"VEC3","byteOffset":0,"bufferView":63,"count":194,"max":[1.1799999475479126,0.33899998664855957,2.428800106048584],"min":[-1.1799999475479126,0.32100000977516174,0.8712000250816345]},{"componentType":5121,"normalized":true,"type":"VEC4","byteOffset":0,"bufferView":64,"count":194,"max":[234,216,168,92],"min":[234,216,168,92]},{"componentType":5125,"type":"SCALAR","bufferView":65,"count":72,"max":[13],"min":[0]},{"componentType":5126,"type":"VEC3","byteOffset":0,"bufferView":66,"count":14,"max":[0.18425926566123962,-0.5422694087028503,2.7740633487701416],"min":[0.1694045513868332,-0.5617031455039978,2.729247808456421]},{"componentType":5121,"normalized":true,"type":"VEC4","byteOffset":0,"bufferView":67,"count":14,"max":[20,20,20,255],"min":[20,20,20,255]},{"componentType":5126,"type":"VEC3","byteOffset":0,"bufferView":68,"count":14,"max":[0.5165691375732422,-0.5412577390670776,2.0290820598602295],"min":[0.5100772380828857,-0.5608931183815002,1.9651185274124146]},{"componentType":5126,"type":"VEC3","byteOffset":0,"bufferView":69,"count":14,"max":[-0.3355170786380768,-0.5527907609939575,2.2535014152526855],"min":[-0.3407422602176666,-0.5720144510269165,2.2016818523406982]},{"componentType":5126,"type":"VEC3","byteOffset":0,"bufferView":70,"count":14,"max":[0.09757772088050842,-0.5420377254486084,2.8415868282318115],"min":[0.0685393437743187,-0.5612558126449585,2.7828288078308105]},{"componentType":5126,"type":"VEC3","byteOffset":0,"bufferView":71,"count":14,"max":[-0.45075613260269165,-0.5457008481025696,2.153465986251831],"min":[-0.4781903028488159,-0.564797580242157,2.114243507385254]},{"componentType":5126,"type":"VEC3","byteOffset":0,"bufferView":72,"count":14,"max":[0.03000744618475437,-0.5394569039344788,2.4186718463897705],"min":[0.024323295801877975,-0.5588563680648804,2.3605175018310547]},{"componentType":5126,"type":"VEC3","byteOffset":0,"bufferView":73,"count":14,"max":[0.006547378841787577,-0.5575848817825317,2.2271273136138916],"min":[-0.007933804765343666,-0.5769433379173279,2.1834328174591064]},{"componentType":5126,"type":"VEC3","byteOffset":0,"bufferView":74,"count":14,"max":[-0.4984603524208069,-0.557522177696228,2.333503246307373],"min":[-0.5201675295829773,-0.5773284435272217,2.2678616046905518]},{"componentType":5126,"type":"VEC3","byteOffset":0,"bufferView":75,"count":14,"max":[-0.3229706883430481,-0.547524631023407,2.7614433765411377],"min":[-0.33484193682670593,-0.5670837163925171,2.6955580711364746]},{"componentType":5126,"type":"VEC3","byteOffset":0,"bufferView":76,"count":14,"max":[0.3986208140850067,-0.546841561794281,2.096836805343628],"min":[0.3756175637245178,-0.5665127038955688,2.042141914367676]},{"componentType":5126,"type":"VEC3","byteOffset":0,"bufferView":77,"count":14,"max":[-0.23759189248085022,-0.5566911101341248,2.5343050956726074],"min":[-0.25136587023735046,-0.5759388208389282,2.4840502738952637]},{"componentType":5126,"type":"VEC3","byteOffset":0,"bufferView":78,"count":14,"max":[-0.4908953309059143,-0.5499728322029114,2.7132325172424316],"min":[-0.49984124302864075,-0.5698493123054504,2.6429030895233154]},{"componentType":5126,"type":"VEC3","byteOffset":0,"bufferView":79,"count":14,"max":[0.1828705370426178,-0.544143557548523,2.5683672428131104],"min":[0.17525456845760345,-0.5637984275817871,2.5264089107513428]},{"componentType":5126,"type":"VEC3","byteOffset":0,"bufferView":80,"count":14,"max":[-0.4421745836734772,-0.5556219816207886,2.3625099658966064],"min":[-0.46083569526672363,-0.5755098462104797,2.2922375202178955]},{"componentType":5126,"type":"VEC3","byteOffset":0,"bufferView":81,"count":14,"max":[0.30094316601753235,-0.5401610732078552,2.2729134559631348],"min":[0.2780461311340332,-0.5598758459091187,2.2129695415496826]},{"componentType":5126,"type":"VEC3","byteOffset":0,"bufferView":82,"count":14,"max":[0.44163230061531067,-0.5395534038543701,2.807666063308716],"min":[0.4195045530796051,-0.5592899322509766,2.7508938312530518]},{"componentType":5126,"type":"VEC3","byteOffset":0,"bufferView":83,"count":14,"max":[-0.3854193389415741,-0.5466959476470947,2.7960941791534424],"min":[-0.40892231464385986,-0.5662109851837158,2.752419948577881]},{"componentType":5126,"type":"VEC3","byteOffset":0,"bufferView":84,"count":14,"max":[0.24901577830314636,-0.5500883460044861,2.509742498397827],"min":[0.23142960667610168,-0.5698601007461548,2.458526849746704]},{"componentType":5126,"type":"VEC3","byteOffset":0,"bufferView":85,"count":14,"max":[-0.577154815196991,-0.5485048890113831,2.7585740089416504],"min":[-0.5909852385520935,-0.5677858591079712,2.7028746604919434]},{"componentType":5126,"type":"VEC3","byteOffset":0,"bufferView":86,"count":14,"max":[0.3763893246650696,-0.5503255724906921,2.04504132270813],"min":[0.35336604714393616,-0.5697870254516602,2.006394624710083]},{"componentType":5126,"type":"VEC3","byteOffset":0,"bufferView":87,"count":14,"max":[0.6904678344726562,-0.5491004586219788,2.5852112770080566],"min":[0.6673809289932251,-0.568770706653595,2.5299718379974365]},{"componentType":5126,"type":"VEC3","byteOffset":0,"bufferView":88,"count":14,"max":[-0.2656533718109131,-0.5441246032714844,2.527332305908203],"min":[-0.2715688943862915,-0.5635280013084412,2.4785397052764893]},{"componentType":5126,"type":"VEC3","byteOffset":0,"bufferView":89,"count":14,"max":[0.36690470576286316,-0.5548513531684875,2.782541275024414],"min":[0.33746999502182007,-0.5741061568260193,2.713148593902588]},{"componentType":5126,"type":"VEC3","byteOffset":0,"bufferView":90,"count":14,"max":[0.39721888303756714,-0.5548727512359619,2.7091684341430664],"min":[0.37729939818382263,-0.5746567249298096,2.6575820446014404]},{"componentType":5126,"type":"VEC3","byteOffset":0,"bufferView":91,"count":14,"max":[-0.6796010136604309,-0.5418060421943665,2.5602400302886963],"min":[-0.6956784725189209,-0.56147301197052,2.5056264400482178]},{"componentType":5126,"type":"VEC3","byteOffset":0,"bufferView":92,"count":14,"max":[-0.44218647480010986,-0.5506243705749512,2.18524432182312],"min":[-0.45476701855659485,-0.5698505640029907,2.1420767307281494]},{"componentType":5126,"type":"VEC3","byteOffset":0,"bufferView":93,"count":14,"max":[0.6954872012138367,-0.5510632991790771,2.513148307800293],"min":[0.6684691309928894,-0.5703340172767639,2.4663145542144775]},{"componentType":5126,"type":"VEC3","byteOffset":0,"bufferView":94,"count":14,"max":[-0.052738700062036514,-0.5473967790603638,2.8316588401794434],"min":[-0.0770675465464592,-0.5669823288917542,2.7764689922332764]},{"componentType":5126,"type":"VEC3","byteOffset":0,"bufferView":95,"count":14,"max":[0.4109094440937042,-0.5490333437919617,2.5188872814178467],"min":[0.4020702838897705,-0.5689007043838501,2.452026128768921]},{"componentType":5126,"type":"VEC3","byteOffset":0,"bufferView":96,"count":14,"max":[0.6136600375175476,-0.5492197275161743,2.078723430633545],"min":[0.5865594148635864,-0.5685803890228271,2.023507595062256]},{"componentType":5126,"type":"VEC3","byteOffset":0,"bufferView":97,"count":14,"max":[-0.3663308620452881,-0.5441563129425049,2.7053775787353516],"min":[-0.3776371479034424,-0.5637848377227783,2.6439766883850098]},{"componentType":5126,"type":"VEC3","byteOffset":0,"bufferView":98,"count":14,"max":[0.7034175395965576,-0.5499082207679749,2.3014848232269287],"min":[0.6765854954719543,-0.5691607594490051,2.2569615840911865]},{"componentType":5126,"type":"VEC3","byteOffset":0,"bufferView":99,"count":14,"max":[-0.38084232807159424,-0.5408936142921448,2.787076234817505],"min":[-0.3905933201313019,-0.5604996085166931,2.746288537979126]},{"componentType":5126,"type":"VEC3","byteOffset":0,"bufferView":100,"count":14,"max":[-0.011300548911094666,-0.5446929335594177,2.53159499168396],"min":[-0.03880532085895538,-0.5639360547065735,2.4835643768310547]},{"componentType":5126,"type":"VEC3","byteOffset":0,"bufferView":101,"count":14,"max":[-0.05721607431769371,-0.5451487898826599,2.560319185256958],"min":[-0.08347603678703308,-0.5644421577453613,2.5164504051208496]},{"componentType":5126,"type":"VEC3","byteOffset":0,"bufferView":102,"count":14,"max":[-0.14101511240005493,-0.5413624048233032,2.672497510910034],"min":[-0.16490423679351807,-0.5610287189483643,2.610213041305542]},{"componentType":5126,"type":"VEC3","byteOffset":0,"bufferView":103,"count":14,"max":[0.5931805372238159,-0.5401905179023743,2.702601194381714],"min":[0.5678668022155762,-0.5597018003463745,2.6473093032836914]},{"componentType":5126,"type":"VEC3","byteOffset":0,"bufferView":104,"count":14,"max":[-0.5986655950546265,-0.5572410821914673,2.0486724376678467],"min":[-0.6158420443534851,-0.5769503116607666,2.0028183460235596]},{"componentType":5126,"type":"VEC3","byteOffset":0,"bufferView":105,"count":14,"max":[-0.5091264843940735,-0.556824803352356,2.5074243545532227],"min":[-0.5301418900489807,-0.5766157507896423,2.4499831199645996]},{"componentType":5126,"type":"VEC3","byteOffset":0,"bufferView":106,"count":14,"max":[0.2753514349460602,-0.5514333248138428,2.041088819503784],"min":[0.2685908377170563,-0.5711438655853271,1.9722434282302856]},{"componentType":5126,"type":"VEC3","byteOffset":0,"bufferView":107,"count":14,"max":[0.5010175704956055,-0.5454320907592773,2.585315704345703],"min":[0.4928591251373291,-0.5651378631591797,2.541951894760132]},{"componentType":5126,"type":"VEC3","byteOffset":0,"bufferView":108,"count":14,"max":[-0.6106812953948975,-0.5385781526565552,2.7021846771240234],"min":[-0.6378170847892761,-0.5580189824104309,2.635571241378784]},{"componentType":5126,"type":"VEC3","byteOffset":0,"bufferView":109,"count":14,"max":[-0.26530981063842773,-0.5553238391876221,2.2882444858551025],"min":[-0.2844761610031128,-0.5751674771308899,2.229630947113037]},{"componentType":5126,"type":"VEC3","byteOffset":0,"bufferView":110,"count":14,"max":[-0.25919103622436523,-0.5417091250419617,2.7490038871765137],"min":[-0.27701252698898315,-0.5614057779312134,2.707266330718994]},{"componentType":5126,"type":"VEC3","byteOffset":0,"bufferView":111,"count":14,"max":[0.5932109355926514,-0.546150267124176,2.1839120388031006],"min":[0.5830845832824707,-0.5659040808677673,2.1252353191375732]},{"componentType":5126,"type":"VEC3","byteOffset":0,"bufferView":112,"count":14,"max":[-0.5887541770935059,-0.5449255704879761,2.587912082672119],"min":[-0.6081840991973877,-0.5647962689399719,2.522547483444214]},{"componentType":5126,"type":"VEC3","byteOffset":0,"bufferView":113,"count":14,"max":[-0.2794276773929596,-0.540239155292511,2.6384520530700684],"min":[-0.30076083540916443,-0.5600699186325073,2.570666790008545]},{"componentType":5126,"type":"VEC3","byteOffset":0,"bufferView":114,"count":14,"max":[-0.6523788571357727,-0.5535068511962891,2.5793747901916504],"min":[-0.6791902184486389,-0.5729060769081116,2.522667169570923]},{"componentType":5126,"type":"VEC3","byteOffset":0,"bufferView":115,"count":14,"max":[-0.20763005316257477,-0.5485657453536987,2.23158860206604],"min":[-0.2321295142173767,-0.568173885345459,2.171766757965088]},{"componentType":5126,"type":"VEC3","byteOffset":0,"bufferView":116,"count":14,"max":[-0.19567307829856873,-0.5444022417068481,2.1308071613311768],"min":[-0.20661619305610657,-0.564099907875061,2.0655221939086914]},{"componentType":5126,"type":"VEC3","byteOffset":0,"bufferView":117,"count":14,"max":[-0.22328318655490875,-0.5536282658576965,2.4834628105163574],"min":[-0.23670260608196259,-0.5727694630622864,2.437966823577881]},{"componentType":5126,"type":"VEC3","byteOffset":0,"bufferView":118,"count":14,"max":[-0.06680699437856674,-0.5426932573318481,2.0886709690093994],"min":[-0.08171933144330978,-0.5621974468231201,2.031856060028076]},{"componentType":5126,"type":"VEC3","byteOffset":0,"bufferView":119,"count":14,"max":[-0.5917356014251709,-0.5551057457923889,2.6721529960632324],"min":[-0.6144355535507202,-0.5746510624885559,2.6300883293151855]},{"componentType":5126,"type":"VEC3","byteOffset":0,"bufferView":120,"count":14,"max":[-0.5095493793487549,-0.5522553324699402,2.780735731124878],"min":[-0.5303941369056702,-0.5719749331474304,2.7329187393188477]},{"componentType":5126,"type":"VEC3","byteOffset":0,"bufferView":121,"count":14,"max":[0.2062602937221527,-0.5489566922187805,2.1752824783325195],"min":[0.19523055851459503,-0.5686507821083069,2.108159303665161]},{"componentType":5126,"type":"VEC3","byteOffset":0,"bufferView":122,"count":14,"max":[0.35286226868629456,-0.5430341958999634,2.1009490489959717],"min":[0.33225637674331665,-0.5628728270530701,2.0371713638305664]},{"componentType":5126,"type":"VEC3","byteOffset":0,"bufferView":123,"count":14,"max":[0.3210813105106354,-0.5563221573829651,2.3346197605133057],"min":[0.3036166727542877,-0.5761093497276306,2.279749870300293]},{"componentType":5126,"type":"VEC3","byteOffset":0,"bufferView":124,"count":14,"max":[-0.48290959000587463,-0.5469604134559631,2.2431793212890625],"min":[-0.5073156952857971,-0.5665947794914246,2.180253744125366]},{"componentType":5126,"type":"VEC3","byteOffset":0,"bufferView":125,"count":14,"max":[-0.5592125654220581,-0.5416797399520874,2.17303466796875],"min":[-0.5750802159309387,-0.5613387823104858,2.1139461994171143]},{"componentType":5126,"type":"VEC3","byteOffset":0,"bufferView":126,"count":14,"max":[0.5726115703582764,-0.5407395958900452,2.8033761978149414],"min":[0.5627416372299194,-0.5605394244194031,2.7399609088897705]},{"componentType":5126,"type":"VEC3","byteOffset":0,"bufferView":127,"count":14,"max":[0.2522079050540924,-0.5424728393554688,2.173137664794922],"min":[0.23631897568702698,-0.5621473789215088,2.110177755355835]},{"componentType":5126,"type":"VEC3","byteOffset":0,"bufferView":128,"count":14,"max":[-0.07991230487823486,-0.549319326877594,2.3415963649749756],"min":[-0.10120931267738342,-0.5688897967338562,2.3029046058654785]},{"componentType":5126,"type":"VEC3","byteOffset":0,"bufferView":129,"count":14,"max":[0.07861596345901489,-0.5466828942298889,2.349217176437378],"min":[0.06794325262308121,-0.5663959383964539,2.2876808643341064]},{"componentType":5126,"type":"VEC3","byteOffset":0,"bufferView":130,"count":14,"max":[0.45089057087898254,-0.549906313419342,2.790074586868286],"min":[0.4333454966545105,-0.5695963501930237,2.7480602264404297]},{"componentType":5126,"type":"VEC3","byteOffset":0,"bufferView":131,"count":14,"max":[0.7024166584014893,-0.5434688329696655,2.142824411392212],"min":[0.6767500042915344,-0.5630241632461548,2.077232837677002]},{"componentType":5126,"type":"VEC3","byteOffset":0,"bufferView":132,"count":14,"max":[-0.5471048951148987,-0.5379102826118469,2.097301721572876],"min":[-0.5673166513442993,-0.5575748085975647,2.0558676719665527]},{"componentType":5126,"type":"VEC3","byteOffset":0,"bufferView":133,"count":14,"max":[0.15743733942508698,-0.5427926778793335,2.40169620513916],"min":[0.13236798346042633,-0.5621916055679321,2.3576388359069824]},{"componentType":5126,"type":"VEC3","byteOffset":0,"bufferView":134,"count":14,"max":[-0.4280877113342285,-0.5565109848976135,2.676734447479248],"min":[-0.4559907019138336,-0.5757848620414734,2.623058795928955]},{"componentType":5126,"type":"VEC3","byteOffset":0,"bufferView":135,"count":14,"max":[-0.32092565298080444,-0.5434172749519348,2.2833967208862305],"min":[-0.3476085066795349,-0.5627927780151367,2.230379104614258]},{"componentType":5126,"type":"VEC3","byteOffset":0,"bufferView":136,"count":14,"max":[0.6000948548316956,-0.5393437147140503,2.767772912979126],"min":[0.5902016162872314,-0.5590033531188965,2.722459077835083]}],"meshes":[{"name":"rounded_body_black_fur","extras":{"shape":"sphere","radius":1.0},"primitives":[{"attributes":{"POSITION":1,"COLOR_0":2},"indices":0,"mode":4}]},{"name":"chest_subtle_fur_highlight","extras":{"shape":"sphere","radius":1.0},"primitives":[{"attributes":{"POSITION":4,"COLOR_0":5},"indices":3,"mode":4}]},{"name":"large_round_head_black_fur","extras":{"shape":"sphere","radius":1.0},"primitives":[{"attributes":{"POSITION":6,"COLOR_0":2},"indices":0,"mode":4}]},{"name":"left_black_ear","extras":{"shape":"cone","radius":0.34,"height":0.88,"processed":true},"primitives":[{"attributes":{"POSITION":8,"COLOR_0":9},"indices":7,"mode":4}]},{"name":"right_black_ear","extras":{"shape":"cone","radius":0.34,"height":0.88,"processed":true},"primitives":[{"attributes":{"POSITION":10,"COLOR_0":9},"indices":7,"mode":4}]},{"name":"left_inner_ear_warm_brown","extras":{"shape":"cone","radius":0.19,"height":0.5,"processed":true},"primitives":[{"attributes":{"POSITION":11,"COLOR_0":12},"indices":7,"mode":4}]},{"name":"right_inner_ear_warm_brown","extras":{"shape":"cone","radius":0.19,"height":0.5,"processed":true},"primitives":[{"attributes":{"POSITION":13,"COLOR_0":12},"indices":7,"mode":4}]},{"name":"left_large_green_eye","extras":{"shape":"sphere","radius":1.0},"primitives":[{"attributes":{"POSITION":14,"COLOR_0":15},"indices":3,"mode":4}]},{"name":"left_light_green_iris_ring","extras":{"shape":"sphere","radius":1.0},"primitives":[{"attributes":{"POSITION":16,"COLOR_0":17},"indices":3,"mode":4}]},{"name":"left_round_black_pupil","extras":{"shape":"sphere","radius":1.0},"primitives":[{"attributes":{"POSITION":18,"COLOR_0":19},"indices":3,"mode":4}]},{"name":"left_white_eye_highlight","extras":{"shape":"sphere","radius":0.035},"primitives":[{"attributes":{"POSITION":21,"COLOR_0":22},"indices":20,"mode":4}]},{"name":"right_large_green_eye","extras":{"shape":"sphere","radius":1.0},"primitives":[{"attributes":{"POSITION":23,"COLOR_0":15},"indices":3,"mode":4}]},{"name":"right_light_green_iris_ring","extras":{"shape":"sphere","radius":1.0},"primitives":[{"attributes":{"POSITION":24,"COLOR_0":17},"indices":3,"mode":4}]},{"name":"right_round_black_pupil","extras":{"shape":"sphere","radius":1.0},"primitives":[{"attributes":{"POSITION":25,"COLOR_0":19},"indices":3,"mode":4}]},{"name":"right_white_eye_highlight","extras":{"shape":"sphere","radius":0.035},"primitives":[{"attributes":{"POSITION":26,"COLOR_0":22},"indices":20,"mode":4}]},{"name":"small_dark_muzzle","extras":{"shape":"sphere","radius":1.0},"primitives":[{"attributes":{"POSITION":27,"COLOR_0":5},"indices":3,"mode":4}]},{"name":"tiny_heart_like_nose","extras":{"shape":"sphere","radius":1.0},"primitives":[{"attributes":{"POSITION":28,"COLOR_0":29},"indices":20,"mode":4}]},{"name":"short_mouth_line","extras":{"shape":"cylinder","height":0.11045361017187248,"radius":0.009,"processed":true},"primitives":[{"attributes":{"POSITION":31,"COLOR_0":32},"indices":30,"mode":4}]},{"name":"left_whisker_1","extras":{"shape":"cylinder","height":0.7060453243241541,"radius":0.006,"processed":true},"primitives":[{"attributes":{"POSITION":34,"COLOR_0":35},"indices":33,"mode":4}]},{"name":"right_whisker_1","extras":{"shape":"cylinder","height":0.7060453243241541,"radius":0.006,"processed":true},"primitives":[{"attributes":{"POSITION":36,"COLOR_0":35},"indices":33,"mode":4}]},{"name":"left_whisker_2","extras":{"shape":"cylinder","height":0.7037044834303673,"radius":0.006,"processed":true},"primitives":[{"attributes":{"POSITION":37,"COLOR_0":35},"indices":33,"mode":4}]},{"name":"right_whisker_2","extras":{"shape":"cylinder","height":0.7037044834303673,"radius":0.006,"processed":true},"primitives":[{"attributes":{"POSITION":38,"COLOR_0":35},"indices":33,"mode":4}]},{"name":"left_whisker_3","extras":{"shape":"cylinder","height":0.7026378868236469,"radius":0.006,"processed":true},"primitives":[{"attributes":{"POSITION":39,"COLOR_0":35},"indices":33,"mode":4}]},{"name":"right_whisker_3","extras":{"shape":"cylinder","height":0.7026378868236469,"radius":0.006,"processed":true},"primitives":[{"attributes":{"POSITION":40,"COLOR_0":35},"indices":33,"mode":4}]},{"name":"left_front_paw","extras":{"shape":"sphere","radius":1.0},"primitives":[{"attributes":{"POSITION":41,"COLOR_0":42},"indices":3,"mode":4}]},{"name":"right_front_paw","extras":{"shape":"sphere","radius":1.0},"primitives":[{"attributes":{"POSITION":43,"COLOR_0":42},"indices":3,"mode":4}]},{"name":"left_side_leg","extras":{"shape":"sphere","radius":1.0},"primitives":[{"attributes":{"POSITION":44,"COLOR_0":5},"indices":3,"mode":4}]},{"name":"right_side_leg","extras":{"shape":"sphere","radius":1.0},"primitives":[{"attributes":{"POSITION":45,"COLOR_0":5},"indices":3,"mode":4}]},{"name":"curled_tail_segment_1","extras":{"shape":"cylinder","height":0.28879058156387305,"radius":0.155,"processed":true},"primitives":[{"attributes":{"POSITION":47,"COLOR_0":48},"indices":46,"mode":4}]},{"name":"curled_tail_segment_2","extras":{"shape":"cylinder","height":0.214009345590327,"radius":0.155,"processed":true},"primitives":[{"attributes":{"POSITION":49,"COLOR_0":48},"indices":46,"mode":4}]},{"name":"curled_tail_segment_3","extras":{"shape":"cylinder","height":0.21954498400100153,"radius":0.155,"processed":true},"primitives":[{"attributes":{"POSITION":50,"COLOR_0":48},"indices":46,"mode":4}]},{"name":"curled_tail_segment_4","extras":{"shape":"cylinder","height":0.21563858652847834,"radius":0.155,"processed":true},"primitives":[{"attributes":{"POSITION":51,"COLOR_0":48},"indices":46,"mode":4}]},{"name":"curled_tail_round_joint_1","extras":{"shape":"sphere","radius":0.155},"primitives":[{"attributes":{"POSITION":52,"COLOR_0":42},"indices":3,"mode":4}]},{"name":"curled_tail_round_joint_2","extras":{"shape":"sphere","radius":0.155},"primitives":[{"attributes":{"POSITION":53,"COLOR_0":42},"indices":3,"mode":4}]},{"name":"curled_tail_round_joint_3","extras":{"shape":"sphere","radius":0.155},"primitives":[{"attributes":{"POSITION":54,"COLOR_0":42},"indices":3,"mode":4}]},{"name":"curled_tail_round_joint_4","extras":{"shape":"sphere","radius":0.155},"primitives":[{"attributes":{"POSITION":55,"COLOR_0":42},"indices":3,"mode":4}]},{"name":"curled_tail_round_joint_5","extras":{"shape":"sphere","radius":0.155},"primitives":[{"attributes":{"POSITION":56,"COLOR_0":42},"indices":3,"mode":4}]},{"name":"thin_gold_halo_ring_behind_head","extras":{"shape":"torus","major_radius":1.05,"minor_radius":0.012,"processed":true},"primitives":[{"attributes":{"POSITION":58,"COLOR_0":59},"indices":57,"mode":4}]},{"name":"gold_dot_on_halo_left","extras":{"shape":"sphere","radius":0.065},"primitives":[{"attributes":{"POSITION":60,"COLOR_0":61},"indices":20,"mode":4}]},{"name":"soft_warm_wash_backdrop","extras":{"shape":"cylinder","height":0.018,"radius":1.18,"processed":true},"primitives":[{"attributes":{"POSITION":63,"COLOR_0":64},"indices":62,"mode":4}]},{"name":"subtle_head_fur_stroke_1","extras":{"shape":"cylinder","height":0.04651581764046639,"radius":0.0025,"processed":true},"primitives":[{"attributes":{"POSITION":66,"COLOR_0":67},"indices":65,"mode":4}]},{"name":"subtle_head_fur_stroke_2","extras":{"shape":"cylinder","height":0.0646811960273074,"radius":0.0025,"processed":true},"primitives":[{"attributes":{"POSITION":68,"COLOR_0":67},"indices":65,"mode":4}]},{"name":"subtle_head_fur_stroke_3","extras":{"shape":"cylinder","height":0.05275559203233898,"radius":0.0025,"processed":true},"primitives":[{"attributes":{"POSITION":69,"COLOR_0":67},"indices":65,"mode":4}]},{"name":"subtle_head_fur_stroke_4","extras":{"shape":"cylinder","height":0.06361014262112503,"radius":0.0025,"processed":true},"primitives":[{"attributes":{"POSITION":70,"COLOR_0":67},"indices":65,"mode":4}]},{"name":"subtle_head_fur_stroke_5","extras":{"shape":"cylinder","height":0.04581490238866411,"radius":0.0025,"processed":true},"primitives":[{"attributes":{"POSITION":71,"COLOR_0":67},"indices":65,"mode":4}]},{"name":"subtle_head_fur_stroke_6","extras":{"shape":"cylinder","height":0.05896703783097138,"radius":0.0025,"processed":true},"primitives":[{"attributes":{"POSITION":72,"COLOR_0":67},"indices":65,"mode":4}]},{"name":"subtle_head_fur_stroke_7","extras":{"shape":"cylinder","height":0.04537536620268055,"radius":0.0025,"processed":true},"primitives":[{"attributes":{"POSITION":73,"COLOR_0":67},"indices":65,"mode":4}]},{"name":"subtle_head_fur_stroke_8","extras":{"shape":"cylinder","height":0.06801550823606274,"radius":0.0025,"processed":true},"primitives":[{"attributes":{"POSITION":74,"COLOR_0":67},"indices":65,"mode":4}]},{"name":"subtle_head_fur_stroke_9","extras":{"shape":"cylinder","height":0.06673423526827682,"radius":0.0025,"processed":true},"primitives":[{"attributes":{"POSITION":75,"COLOR_0":67},"indices":65,"mode":4}]},{"name":"subtle_head_fur_stroke_10","extras":{"shape":"cylinder","height":0.05791907543711641,"radius":0.0025,"processed":true},"primitives":[{"attributes":{"POSITION":76,"COLOR_0":67},"indices":65,"mode":4}]},{"name":"subtle_head_fur_stroke_11","extras":{"shape":"cylinder","height":0.05159510447508576,"radius":0.0025,"processed":true},"primitives":[{"attributes":{"POSITION":77,"COLOR_0":67},"indices":65,"mode":4}]},{"name":"subtle_head_fur_stroke_12","extras":{"shape":"cylinder","height":0.0710046770984354,"radius":0.0025,"processed":true},"primitives":[{"attributes":{"POSITION":78,"COLOR_0":67},"indices":65,"mode":4}]},{"name":"subtle_head_fur_stroke_13","extras":{"shape":"cylinder","height":0.04308352016952675,"radius":0.0025,"processed":true},"primitives":[{"attributes":{"POSITION":79,"COLOR_0":67},"indices":65,"mode":4}]},{"name":"subtle_head_fur_stroke_14","extras":{"shape":"cylinder","height":0.07191440825011713,"radius":0.0025,"processed":true},"primitives":[{"attributes":{"POSITION":80,"COLOR_0":67},"indices":65,"mode":4}]},{"name":"subtle_head_fur_stroke_15","extras":{"shape":"cylinder","height":0.06284019905629416,"radius":0.0025,"processed":true},"primitives":[{"attributes":{"POSITION":81,"COLOR_0":67},"indices":65,"mode":4}]},{"name":"subtle_head_fur_stroke_16","extras":{"shape":"cylinder","height":0.05964619778187188,"radius":0.0025,"processed":true},"primitives":[{"attributes":{"POSITION":82,"COLOR_0":67},"indices":65,"mode":4}]},{"name":"subtle_head_fur_stroke_17","extras":{"shape":"cylinder","height":0.04796912436038631,"radius":0.0025,"processed":true},"primitives":[{"attributes":{"POSITION":83,"COLOR_0":67},"indices":65,"mode":4}]},{"name":"subtle_head_fur_stroke_18","extras":{"shape":"cylinder","height":0.05322958121078446,"radius":0.0025,"processed":true},"primitives":[{"attributes":{"POSITION":84,"COLOR_0":67},"indices":65,"mode":4}]},{"name":"subtle_head_fur_stroke_19","extras":{"shape":"cylinder","height":0.056904777835708686,"radius":0.0025,"processed":true},"primitives":[{"attributes":{"POSITION":85,"COLOR_0":67},"indices":65,"mode":4}]},{"name":"subtle_head_fur_stroke_20","extras":{"shape":"cylinder","height":0.04337064139071201,"radius":0.0025,"processed":true},"primitives":[{"attributes":{"POSITION":86,"COLOR_0":67},"indices":65,"mode":4}]},{"name":"subtle_head_fur_stroke_21","extras":{"shape":"cylinder","height":0.05845213479963056,"radius":0.0025,"processed":true},"primitives":[{"attributes":{"POSITION":87,"COLOR_0":67},"indices":65,"mode":4}]},{"name":"subtle_head_fur_stroke_22","extras":{"shape":"cylinder","height":0.04976360468730041,"radius":0.0025,"processed":true},"primitives":[{"attributes":{"POSITION":88,"COLOR_0":67},"indices":65,"mode":4}]},{"name":"subtle_head_fur_stroke_23","extras":{"shape":"cylinder","height":0.07359555222031784,"radius":0.0025,"processed":true},"primitives":[{"attributes":{"POSITION":89,"COLOR_0":67},"indices":65,"mode":4}]},{"name":"subtle_head_fur_stroke_24","extras":{"shape":"cylinder","height":0.05421940220983916,"radius":0.0025,"processed":true},"primitives":[{"attributes":{"POSITION":90,"COLOR_0":67},"indices":65,"mode":4}]},{"name":"subtle_head_fur_stroke_25","extras":{"shape":"cylinder","height":0.056185097738710034,"radius":0.0025,"processed":true},"primitives":[{"attributes":{"POSITION":91,"COLOR_0":67},"indices":65,"mode":4}]},{"name":"subtle_head_fur_stroke_26","extras":{"shape":"cylinder","height":0.044589415326968834,"radius":0.0025,"processed":true},"primitives":[{"attributes":{"POSITION":92,"COLOR_0":67},"indices":65,"mode":4}]},{"name":"subtle_head_fur_stroke_27","extras":{"shape":"cylinder","height":0.052119079566921946,"radius":0.0025,"processed":true},"primitives":[{"attributes":{"POSITION":93,"COLOR_0":67},"indices":65,"mode":4}]},{"name":"subtle_head_fur_stroke_28","extras":{"shape":"cylinder","height":0.05875964004051408,"radius":0.0025,"processed":true},"primitives":[{"attributes":{"POSITION":94,"COLOR_0":67},"indices":65,"mode":4}]},{"name":"subtle_head_fur_stroke_29","extras":{"shape":"cylinder","height":0.06757080220233291,"radius":0.0025,"processed":true},"primitives":[{"attributes":{"POSITION":95,"COLOR_0":67},"indices":65,"mode":4}]},{"name":"subtle_head_fur_stroke_30","extras":{"shape":"cylinder","height":0.059680789356177155,"radius":0.0025,"processed":true},"primitives":[{"attributes":{"POSITION":96,"COLOR_0":67},"indices":65,"mode":4}]},{"name":"subtle_head_fur_stroke_31","extras":{"shape":"cylinder","height":0.06227981357546585,"radius":0.0025,"processed":true},"primitives":[{"attributes":{"POSITION":97,"COLOR_0":67},"indices":65,"mode":4}]},{"name":"subtle_head_fur_stroke_32","extras":{"shape":"cylinder","height":0.05002237551634644,"radius":0.0025,"processed":true},"primitives":[{"attributes":{"POSITION":98,"COLOR_0":67},"indices":65,"mode":4}]},{"name":"subtle_head_fur_stroke_33","extras":{"shape":"cylinder","height":0.04204518068731227,"radius":0.0025,"processed":true},"primitives":[{"attributes":{"POSITION":99,"COLOR_0":67},"indices":65,"mode":4}]},{"name":"subtle_head_fur_stroke_34","extras":{"shape":"cylinder","height":0.053372523929750816,"radius":0.0025,"processed":true},"primitives":[{"attributes":{"POSITION":100,"COLOR_0":67},"indices":65,"mode":4}]},{"name":"subtle_head_fur_stroke_35","extras":{"shape":"cylinder","height":0.049212371980012444,"radius":0.0025,"processed":true},"primitives":[{"attributes":{"POSITION":101,"COLOR_0":67},"indices":65,"mode":4}]},{"name":"subtle_head_fur_stroke_36","extras":{"shape":"cylinder","height":0.0653091337709696,"radius":0.0025,"processed":true},"primitives":[{"attributes":{"POSITION":102,"COLOR_0":67},"indices":65,"mode":4}]},{"name":"subtle_head_fur_stroke_37","extras":{"shape":"cylinder","height":0.05915606542702033,"radius":0.0025,"processed":true},"primitives":[{"attributes":{"POSITION":103,"COLOR_0":67},"indices":65,"mode":4}]},{"name":"subtle_head_fur_stroke_38","extras":{"shape":"cylinder","height":0.048016599878817116,"radius":0.0025,"processed":true},"primitives":[{"attributes":{"POSITION":104,"COLOR_0":67},"indices":65,"mode":4}]},{"name":"subtle_head_fur_stroke_39","extras":{"shape":"cylinder","height":0.06001920524435138,"radius":0.0025,"processed":true},"primitives":[{"attributes":{"POSITION":105,"COLOR_0":67},"indices":65,"mode":4}]},{"name":"subtle_head_fur_stroke_40","extras":{"shape":"cylinder","height":0.06950694362302982,"radius":0.0025,"processed":true},"primitives":[{"attributes":{"POSITION":106,"COLOR_0":67},"indices":65,"mode":4}]},{"name":"subtle_head_fur_stroke_41","extras":{"shape":"cylinder","height":0.04446586395750609,"radius":0.0025,"processed":true},"primitives":[{"attributes":{"POSITION":107,"COLOR_0":67},"indices":65,"mode":4}]},{"name":"subtle_head_fur_stroke_42","extras":{"shape":"cylinder","height":0.07028803497343411,"radius":0.0025,"processed":true},"primitives":[{"attributes":{"POSITION":108,"COLOR_0":67},"indices":65,"mode":4}]},{"name":"subtle_head_fur_stroke_43","extras":{"shape":"cylinder","height":0.06072387733366215,"radius":0.0025,"processed":true},"primitives":[{"attributes":{"POSITION":109,"COLOR_0":67},"indices":65,"mode":4}]},{"name":"subtle_head_fur_stroke_44","extras":{"shape":"cylinder","height":0.044326643513373204,"radius":0.0025,"processed":true},"primitives":[{"attributes":{"POSITION":110,"COLOR_0":67},"indices":65,"mode":4}]},{"name":"subtle_head_fur_stroke_45","extras":{"shape":"cylinder","height":0.05953674686525144,"radius":0.0025,"processed":true},"primitives":[{"attributes":{"POSITION":111,"COLOR_0":67},"indices":65,"mode":4}]},{"name":"subtle_head_fur_stroke_46","extras":{"shape":"cylinder","height":0.06730775427578016,"radius":0.0025,"processed":true},"primitives":[{"attributes":{"POSITION":112,"COLOR_0":67},"indices":65,"mode":4}]},{"name":"subtle_head_fur_stroke_47","extras":{"shape":"cylinder","height":0.07000655326960863,"radius":0.0025,"processed":true},"primitives":[{"attributes":{"POSITION":113,"COLOR_0":67},"indices":65,"mode":4}]},{"name":"subtle_head_fur_stroke_48","extras":{"shape":"cylinder","height":0.0609506611859689,"radius":0.0025,"processed":true},"primitives":[{"attributes":{"POSITION":114,"COLOR_0":67},"indices":65,"mode":4}]},{"name":"subtle_head_fur_stroke_49","extras":{"shape":"cylinder","height":0.06314440105033745,"radius":0.0025,"processed":true},"primitives":[{"attributes":{"POSITION":115,"COLOR_0":67},"indices":65,"mode":4}]},{"name":"subtle_head_fur_stroke_50","extras":{"shape":"cylinder","height":0.06608927772542103,"radius":0.0025,"processed":true},"primitives":[{"attributes":{"POSITION":116,"COLOR_0":67},"indices":65,"mode":4}]},{"name":"subtle_head_fur_stroke_51","extras":{"shape":"cylinder","height":0.046941593582887346,"radius":0.0025,"processed":true},"primitives":[{"attributes":{"POSITION":117,"COLOR_0":67},"indices":65,"mode":4}]},{"name":"subtle_head_fur_stroke_52","extras":{"shape":"cylinder","height":0.05813551164263373,"radius":0.0025,"processed":true},"primitives":[{"attributes":{"POSITION":118,"COLOR_0":67},"indices":65,"mode":4}]},{"name":"subtle_head_fur_stroke_53","extras":{"shape":"cylinder","height":0.04625016758037204,"radius":0.0025,"processed":true},"primitives":[{"attributes":{"POSITION":119,"COLOR_0":67},"indices":65,"mode":4}]},{"name":"subtle_head_fur_stroke_54","extras":{"shape":"cylinder","height":0.05091756247815986,"radius":0.0025,"processed":true},"primitives":[{"attributes":{"POSITION":120,"COLOR_0":67},"indices":65,"mode":4}]},{"name":"subtle_head_fur_stroke_55","extras":{"shape":"cylinder","height":0.06790842958803774,"radius":0.0025,"processed":true},"primitives":[{"attributes":{"POSITION":121,"COLOR_0":67},"indices":65,"mode":4}]},{"name":"subtle_head_fur_stroke_56","extras":{"shape":"cylinder","height":0.06600178984497136,"radius":0.0025,"processed":true},"primitives":[{"attributes":{"POSITION":122,"COLOR_0":67},"indices":65,"mode":4}]},{"name":"subtle_head_fur_stroke_57","extras":{"shape":"cylinder","height":0.056713301250148694,"radius":0.0025,"processed":true},"primitives":[{"attributes":{"POSITION":123,"COLOR_0":67},"indices":65,"mode":4}]},{"name":"subtle_head_fur_stroke_58","extras":{"shape":"cylinder","height":0.06605009518139514,"radius":0.0025,"processed":true},"primitives":[{"attributes":{"POSITION":124,"COLOR_0":67},"indices":65,"mode":4}]},{"name":"subtle_head_fur_stroke_59","extras":{"shape":"cylinder","height":0.060498143470074026,"radius":0.0025,"processed":true},"primitives":[{"attributes":{"POSITION":125,"COLOR_0":67},"indices":65,"mode":4}]},{"name":"subtle_head_fur_stroke_60","extras":{"shape":"cylinder","height":0.06419715450433477,"radius":0.0025,"processed":true},"primitives":[{"attributes":{"POSITION":126,"COLOR_0":67},"indices":65,"mode":4}]},{"name":"subtle_head_fur_stroke_61","extras":{"shape":"cylinder","height":0.06428092724369777,"radius":0.0025,"processed":true},"primitives":[{"attributes":{"POSITION":127,"COLOR_0":67},"indices":65,"mode":4}]},{"name":"subtle_head_fur_stroke_62","extras":{"shape":"cylinder","height":0.04277187832640664,"radius":0.0025,"processed":true},"primitives":[{"attributes":{"POSITION":128,"COLOR_0":67},"indices":65,"mode":4}]},{"name":"subtle_head_fur_stroke_63","extras":{"shape":"cylinder","height":0.06237855392832843,"radius":0.0025,"processed":true},"primitives":[{"attributes":{"POSITION":129,"COLOR_0":67},"indices":65,"mode":4}]},{"name":"subtle_head_fur_stroke_64","extras":{"shape":"cylinder","height":0.044501707770703086,"radius":0.0025,"processed":true},"primitives":[{"attributes":{"POSITION":130,"COLOR_0":67},"indices":65,"mode":4}]},{"name":"subtle_head_fur_stroke_65","extras":{"shape":"cylinder","height":0.06891054824195342,"radius":0.0025,"processed":true},"primitives":[{"attributes":{"POSITION":131,"COLOR_0":67},"indices":65,"mode":4}]},{"name":"subtle_head_fur_stroke_66","extras":{"shape":"cylinder","height":0.044876341954004875,"radius":0.0025,"processed":true},"primitives":[{"attributes":{"POSITION":132,"COLOR_0":67},"indices":65,"mode":4}]},{"name":"subtle_head_fur_stroke_67","extras":{"shape":"cylinder","height":0.048895024913355324,"radius":0.0025,"processed":true},"primitives":[{"attributes":{"POSITION":133,"COLOR_0":67},"indices":65,"mode":4}]},{"name":"subtle_head_fur_stroke_68","extras":{"shape":"cylinder","height":0.05857154084829509,"radius":0.0025,"processed":true},"primitives":[{"attributes":{"POSITION":134,"COLOR_0":67},"indices":65,"mode":4}]},{"name":"subtle_head_fur_stroke_69","extras":{"shape":"cylinder","height":0.05752860473731699,"radius":0.0025,"processed":true},"primitives":[{"attributes":{"POSITION":135,"COLOR_0":67},"indices":65,"mode":4}]},{"name":"subtle_head_fur_stroke_70","extras":{"shape":"cylinder","height":0.04643943390917382,"radius":0.0025,"processed":true},"primitives":[{"attributes":{"POSITION":136,"COLOR_0":67},"indices":65,"mode":4}]}],"cameras":[{"name":"camera_E1E9EB","type":"perspective","perspective":{"aspectRatio":1.0,"yfov":0.6283185307179586,"znear":0.01}}],"nodes":[{"name":"world","children":[1,2,3,4,5,6,7,8,9,10,11,12,13,14,15,16,17,18,19,20,21,22,23,24,25,26,27,28,29,30,31,32,33,34,35,36,37,38,39,40,41,42,43,44,45,46,47,48,49,50,51,52,53,54,55,56,57,58,59,60,61,62,63,64,65,66,67,68,69,70,71,72,73,74,75,76,77,78,79,80,81,82,83,84,85,86,87,88,89,90,91,92,93,94,95,96,97,98,99,100,101,102,103,104,105,106,107,108,109,110,111]},{"name":"rounded_body_black_fur","mesh":0},{"name":"chest_subtle_fur_highlight","mesh":1},{"name":"large_round_head_black_fur","mesh":2},{"name":"left_black_ear","mesh":3},{"name":"right_black_ear","mesh":4},{"name":"left_inner_ear_warm_brown","mesh":5},{"name":"right_inner_ear_warm_brown","mesh":6},{"name":"left_large_green_eye","mesh":7},{"name":"left_light_green_iris_ring","mesh":8},{"name":"left_round_black_pupil","mesh":9},{"name":"left_white_eye_highlight","mesh":10},{"name":"right_large_green_eye","mesh":11},{"name":"right_light_green_iris_ring","mesh":12},{"name":"right_round_black_pupil","mesh":13},{"name":"right_white_eye_highlight","mesh":14},{"name":"small_dark_muzzle","mesh":15},{"name":"tiny_heart_like_nose","mesh":16},{"name":"short_mouth_line","mesh":17},{"name":"left_whisker_1","mesh":18},{"name":"right_whisker_1","mesh":19},{"name":"left_whisker_2","mesh":20},{"name":"right_whisker_2","mesh":21},{"name":"left_whisker_3","mesh":22},{"name":"right_whisker_3","mesh":23},{"name":"left_front_paw","mesh":24},{"name":"right_front_paw","mesh":25},{"name":"left_side_leg","mesh":26},{"name":"right_side_leg","mesh":27},{"name":"curled_tail_segment_1","mesh":28},{"name":"curled_tail_segment_2","mesh":29},{"name":"curled_tail_segment_3","mesh":30},{"name":"curled_tail_segment_4","mesh":31},{"name":"curled_tail_round_joint_1","mesh":32},{"name":"curled_tail_round_joint_2","mesh":33},{"name":"curled_tail_round_joint_3","mesh":34},{"name":"curled_tail_round_joint_4","mesh":35},{"name":"curled_tail_round_joint_5","mesh":36},{"name":"thin_gold_halo_ring_behind_head","mesh":37},{"name":"gold_dot_on_halo_left","mesh":38},{"name":"soft_warm_wash_backdrop","mesh":39},{"name":"subtle_head_fur_stroke_1","mesh":40},{"name":"subtle_head_fur_stroke_2","mesh":41},{"name":"subtle_head_fur_stroke_3","mesh":42},{"name":"subtle_head_fur_stroke_4","mesh":43},{"name":"subtle_head_fur_stroke_5","mesh":44},{"name":"subtle_head_fur_stroke_6","mesh":45},{"name":"subtle_head_fur_stroke_7","mesh":46},{"name":"subtle_head_fur_stroke_8","mesh":47},{"name":"subtle_head_fur_stroke_9","mesh":48},{"name":"subtle_head_fur_stroke_10","mesh":49},{"name":"subtle_head_fur_stroke_11","mesh":50},{"name":"subtle_head_fur_stroke_12","mesh":51},{"name":"subtle_head_fur_stroke_13","mesh":52},{"name":"subtle_head_fur_stroke_14","mesh":53},{"name":"subtle_head_fur_stroke_15","mesh":54},{"name":"subtle_head_fur_stroke_16","mesh":55},{"name":"subtle_head_fur_stroke_17","mesh":56},{"name":"subtle_head_fur_stroke_18","mesh":57},{"name":"subtle_head_fur_stroke_19","mesh":58},{"name":"subtle_head_fur_stroke_20","mesh":59},{"name":"subtle_head_fur_stroke_21","mesh":60},{"name":"subtle_head_fur_stroke_22","mesh":61},{"name":"subtle_head_fur_stroke_23","mesh":62},{"name":"subtle_head_fur_stroke_24","mesh":63},{"name":"subtle_head_fur_stroke_25","mesh":64},{"name":"subtle_head_fur_stroke_26","mesh":65},{"name":"subtle_head_fur_stroke_27","mesh":66},{"name":"subtle_head_fur_stroke_28","mesh":67},{"name":"subtle_head_fur_stroke_29","mesh":68},{"name":"subtle_head_fur_stroke_30","mesh":69},{"name":"subtle_head_fur_stroke_31","mesh":70},{"name":"subtle_head_fur_stroke_32","mesh":71},{"name":"subtle_head_fur_stroke_33","mesh":72},{"name":"subtle_head_fur_stroke_34","mesh":73},{"name":"subtle_head_fur_stroke_35","mesh":74},{"name":"subtle_head_fur_stroke_36","mesh":75},{"name":"subtle_head_fur_stroke_37","mesh":76},{"name":"subtle_head_fur_stroke_38","mesh":77},{"name":"subtle_head_fur_stroke_39","mesh":78},{"name":"subtle_head_fur_stroke_40","mesh":79},{"name":"subtle_head_fur_stroke_41","mesh":80},{"name":"subtle_head_fur_stroke_42","mesh":81},{"name":"subtle_head_fur_stroke_43","mesh":82},{"name":"subtle_head_fur_stroke_44","mesh":83},{"name":"subtle_head_fur_stroke_45","mesh":84},{"name":"subtle_head_fur_stroke_46","mesh":85},{"name":"subtle_head_fur_stroke_47","mesh":86},{"name":"subtle_head_fur_stroke_48","mesh":87},{"name":"subtle_head_fur_stroke_49","mesh":88},{"name":"subtle_head_fur_stroke_50","mesh":89},{"name":"subtle_head_fur_stroke_51","mesh":90},{"name":"subtle_head_fur_stroke_52","mesh":91},{"name":"subtle_head_fur_stroke_53","mesh":92},{"name":"subtle_head_fur_stroke_54","mesh":93},{"name":"subtle_head_fur_stroke_55","mesh":94},{"name":"subtle_head_fur_stroke_56","mesh":95},{"name":"subtle_head_fur_stroke_57","mesh":96},{"name":"subtle_head_fur_stroke_58","mesh":97},{"name":"subtle_head_fur_stroke_59","mesh":98},{"name":"subtle_head_fur_stroke_60","mesh":99},{"name":"subtle_head_fur_stroke_61","mesh":100},{"name":"subtle_head_fur_stroke_62","mesh":101},{"name":"subtle_head_fur_stroke_63","mesh":102},{"name":"subtle_head_fur_stroke_64","mesh":103},{"name":"subtle_head_fur_stroke_65","mesh":104},{"name":"subtle_head_fur_stroke_66","mesh":105},{"name":"subtle_head_fur_stroke_67","mesh":106},{"name":"subtle_head_fur_stroke_68","mesh":107},{"name":"subtle_head_fur_stroke_69","mesh":108},{"name":"subtle_head_fur_stroke_70","mesh":109},{"name":"camera_E1E9EB","camera":0,"matrix":[1.0,0.0,0.0,0.0,0.0,0.0,1.0,0.0,0.0,-1.0,0.0,0.0,0.0,-5.8,1.75,1.0]}],"buffers":[{"uri":"gltf_buffer_0.bin","byteLength":61440},{"uri":"gltf_buffer_1.bin","byteLength":30744},{"uri":"gltf_buffer_2.bin","byteLength":10248},{"uri":"gltf_buffer_3.bin","byteLength":15360},{"uri":"gltf_buffer_4.bin","byteLength":7704},{"uri":"gltf_buffer_5.bin","byteLength":2568},{"uri":"gltf_buffer_6.bin","byteLength":30744},{"uri":"gltf_buffer_7.bin","byteLength":1536},{"uri":"gltf_buffer_8.bin","byteLength":792},{"uri":"gltf_buffer_9.bin","byteLength":264},{"uri":"gltf_buffer_10.bin","byteLength":792},{"uri":"gltf_buffer_11.bin","byteLength":792},{"uri":"gltf_buffer_12.bin","byteLength":264},{"uri":"gltf_buffer_13.bin","byteLength":792},{"uri":"gltf_buffer_14.bin","byteLength":7704},{"uri":"gltf_buffer_15.bin","byteLength":2568},{"uri":"gltf_buffer_16.bin","byteLength":7704},{"uri":"gltf_buffer_17.bin","byteLength":2568},{"uri":"gltf_buffer_18.bin","byteLength":7704},{"uri":"gltf_buffer_19.bin","byteLength":2568},{"uri":"gltf_buffer_20.bin","byteLength":3840},{"uri":"gltf_buffer_21.bin","byteLength":1944},{"uri":"gltf_buffer_22.bin","byteLength":648},{"uri":"gltf_buffer_23.bin","byteLength":7704},{"uri":"gltf_buffer_24.bin","byteLength":7704},{"uri":"gltf_buffer_25.bin","byteLength":7704},{"uri":"gltf_buffer_26.bin","byteLength":1944},{"uri":"gltf_buffer_27.bin","byteLength":7704},{"uri":"gltf_buffer_28.bin","byteLength":1944},{"uri":"gltf_buffer_29.bin","byteLength":648},{"uri":"gltf_buffer_30.bin","byteLength":576},{"uri":"gltf_buffer_31.bin","byteLength":312},{"uri":"gltf_buffer_32.bin","byteLength":104},{"uri":"gltf_buffer_33.bin","byteLength":384},{"uri":"gltf_buffer_34.bin","byteLength":216},{"uri":"gltf_buffer_35.bin","byteLength":72},{"uri":"gltf_buffer_36.bin","byteLength":216},{"uri":"gltf_buffer_37.bin","byteLength":216},{"uri":"gltf_buffer_38.bin","byteLength":216},{"uri":"gltf_buffer_39.bin","byteLength":216},{"uri":"gltf_buffer_40.bin","byteLength":216},{"uri":"gltf_buffer_41.bin","byteLength":7704},{"uri":"gltf_buffer_42.bin","byteLength":2568},{"uri":"gltf_buffer_43.bin","byteLength":7704},{"uri":"gltf_buffer_44.bin","byteLength":7704},{"uri":"gltf_buffer_45.bin","byteLength":7704},{"uri":"gltf_buffer_46.bin","byteLength":1152},{"uri":"gltf_buffer_47.bin","byteLength":600},{"uri":"gltf_buffer_48.bin","byteLength":200},{"uri":"gltf_buffer_49.bin","byteLength":600},{"uri":"gltf_buffer_50.bin","byteLength":600},{"uri":"gltf_buffer_51.bin","byteLength":600},{"uri":"gltf_buffer_52.bin","byteLength":7704},{"uri":"gltf_buffer_53.bin","byteLength":7704},{"uri":"gltf_buffer_54.bin","byteLength":7704},{"uri":"gltf_buffer_55.bin","byteLength":7704},{"uri":"gltf_buffer_56.bin","byteLength":7704},{"uri":"gltf_buffer_57.bin","byteLength":24576},{"uri":"gltf_buffer_58.bin","byteLength":12288},{"uri":"gltf_buffer_59.bin","byteLength":4096},{"uri":"gltf_buffer_60.bin","byteLength":1944},{"uri":"gltf_buffer_61.bin","byteLength":648},{"uri":"gltf_buffer_62.bin","byteLength":4608},{"uri":"gltf_buffer_63.bin","byteLength":2328},{"uri":"gltf_buffer_64.bin","byteLength":776},{"uri":"gltf_buffer_65.bin","byteLength":288},{"uri":"gltf_buffer_66.bin","byteLength":168},{"uri":"gltf_buffer_67.bin","byteLength":56},{"uri":"gltf_buffer_68.bin","byteLength":168},{"uri":"gltf_buffer_69.bin","byteLength":168},{"uri":"gltf_buffer_70.bin","byteLength":168},{"uri":"gltf_buffer_71.bin","byteLength":168},{"uri":"gltf_buffer_72.bin","byteLength":168},{"uri":"gltf_buffer_73.bin","byteLength":168},{"uri":"gltf_buffer_74.bin","byteLength":168},{"uri":"gltf_buffer_75.bin","byteLength":168},{"uri":"gltf_buffer_76.bin","byteLength":168},{"uri":"gltf_buffer_77.bin","byteLength":168},{"uri":"gltf_buffer_78.bin","byteLength":168},{"uri":"gltf_buffer_79.bin","byteLength":168},{"uri":"gltf_buffer_80.bin","byteLength":168},{"uri":"gltf_buffer_81.bin","byteLength":168},{"uri":"gltf_buffer_82.bin","byteLength":168},{"uri":"gltf_buffer_83.bin","byteLength":168},{"uri":"gltf_buffer_84.bin","byteLength":168},{"uri":"gltf_buffer_85.bin","byteLength":168},{"uri":"gltf_buffer_86.bin","byteLength":168},{"uri":"gltf_buffer_87.bin","byteLength":168},{"uri":"gltf_buffer_88.bin","byteLength":168},{"uri":"gltf_buffer_89.bin","byteLength":168},{"uri":"gltf_buffer_90.bin","byteLength":168},{"uri":"gltf_buffer_91.bin","byteLength":168},{"uri":"gltf_buffer_92.bin","byteLength":168},{"uri":"gltf_buffer_93.bin","byteLength":168},{"uri":"gltf_buffer_94.bin","byteLength":168},{"uri":"gltf_buffer_95.bin","byteLength":168},{"uri":"gltf_buffer_96.bin","byteLength":168},{"uri":"gltf_buffer_97.bin","byteLength":168},{"uri":"gltf_buffer_98.bin","byteLength":168},{"uri":"gltf_buffer_99.bin","byteLength":168},{"uri":"gltf_buffer_100.bin","byteLength":168},{"uri":"gltf_buffer_101.bin","byteLength":168},{"uri":"gltf_buffer_102.bin","byteLength":168},{"uri":"gltf_buffer_103.bin","byteLength":168},{"uri":"gltf_buffer_104.bin","byteLength":168},{"uri":"gltf_buffer_105.bin","byteLength":168},{"uri":"gltf_buffer_106.bin","byteLength":168},{"uri":"gltf_buffer_107.bin","byteLength":168},{"uri":"gltf_buffer_108.bin","byteLength":168},{"uri":"gltf_buffer_109.bin","byteLength":168},{"uri":"gltf_buffer_110.bin","byteLength":168},{"uri":"gltf_buffer_111.bin","byteLength":168},{"uri":"gltf_buffer_112.bin","byteLength":168},{"uri":"gltf_buffer_113.bin","byteLength":168},{"uri":"gltf_buffer_114.bin","byteLength":168},{"uri":"gltf_buffer_115.bin","byteLength":168},{"uri":"gltf_buffer_116.bin","byteLength":168},{"uri":"gltf_buffer_117.bin","byteLength":168},{"uri":"gltf_buffer_118.bin","byteLength":168},{"uri":"gltf_buffer_119.bin","byteLength":168},{"uri":"gltf_buffer_120.bin","byteLength":168},{"uri":"gltf_buffer_121.bin","byteLength":168},{"uri":"gltf_buffer_122.bin","byteLength":168},{"uri":"gltf_buffer_123.bin","byteLength":168},{"uri":"gltf_buffer_124.bin","byteLength":168},{"uri":"gltf_buffer_125.bin","byteLength":168},{"uri":"gltf_buffer_126.bin","byteLength":168},{"uri":"gltf_buffer_127.bin","byteLength":168},{"uri":"gltf_buffer_128.bin","byteLength":168},{"uri":"gltf_buffer_129.bin","byteLength":168},{"uri":"gltf_buffer_130.bin","byteLength":168},{"uri":"gltf_buffer_131.bin","byteLength":168},{"uri":"gltf_buffer_132.bin","byteLength":168},{"uri":"gltf_buffer_133.bin","byteLength":168},{"uri":"gltf_buffer_134.bin","byteLength":168},{"uri":"gltf_buffer_135.bin","byteLength":168},{"uri":"gltf_buffer_136.bin","byteLength":168}],"bufferViews":[{"buffer":0,"byteOffset":0,"byteLength":61440},{"buffer":1,"byteOffset":0,"byteLength":30744},{"buffer":2,"byteOffset":0,"byteLength":10248},{"buffer":3,"byteOffset":0,"byteLength":15360},{"buffer":4,"byteOffset":0,"byteLength":7704},{"buffer":5,"byteOffset":0,"byteLength":2568},{"buffer":6,"byteOffset":0,"byteLength":30744},{"buffer":7,"byteOffset":0,"byteLength":1536},{"buffer":8,"byteOffset":0,"byteLength":792},{"buffer":9,"byteOffset":0,"byteLength":264},{"buffer":10,"byteOffset":0,"byteLength":792},{"buffer":11,"byteOffset":0,"byteLength":792},{"buffer":12,"byteOffset":0,"byteLength":264},{"buffer":13,"byteOffset":0,"byteLength":792},{"buffer":14,"byteOffset":0,"byteLength":7704},{"buffer":15,"byteOffset":0,"byteLength":2568},{"buffer":16,"byteOffset":0,"byteLength":7704},{"buffer":17,"byteOffset":0,"byteLength":2568},{"buffer":18,"byteOffset":0,"byteLength":7704},{"buffer":19,"byteOffset":0,"byteLength":2568},{"buffer":20,"byteOffset":0,"byteLength":3840},{"buffer":21,"byteOffset":0,"byteLength":1944},{"buffer":22,"byteOffset":0,"byteLength":648},{"buffer":23,"byteOffset":0,"byteLength":7704},{"buffer":24,"byteOffset":0,"byteLength":7704},{"buffer":25,"byteOffset":0,"byteLength":7704},{"buffer":26,"byteOffset":0,"byteLength":1944},{"buffer":27,"byteOffset":0,"byteLength":7704},{"buffer":28,"byteOffset":0,"byteLength":1944},{"buffer":29,"byteOffset":0,"byteLength":648},{"buffer":30,"byteOffset":0,"byteLength":576},{"buffer":31,"byteOffset":0,"byteLength":312},{"buffer":32,"byteOffset":0,"byteLength":104},{"buffer":33,"byteOffset":0,"byteLength":384},{"buffer":34,"byteOffset":0,"byteLength":216},{"buffer":35,"byteOffset":0,"byteLength":72},{"buffer":36,"byteOffset":0,"byteLength":216},{"buffer":37,"byteOffset":0,"byteLength":216},{"buffer":38,"byteOffset":0,"byteLength":216},{"buffer":39,"byteOffset":0,"byteLength":216},{"buffer":40,"byteOffset":0,"byteLength":216},{"buffer":41,"byteOffset":0,"byteLength":7704},{"buffer":42,"byteOffset":0,"byteLength":2568},{"buffer":43,"byteOffset":0,"byteLength":7704},{"buffer":44,"byteOffset":0,"byteLength":7704},{"buffer":45,"byteOffset":0,"byteLength":7704},{"buffer":46,"byteOffset":0,"byteLength":1152},{"buffer":47,"byteOffset":0,"byteLength":600},{"buffer":48,"byteOffset":0,"byteLength":200},{"buffer":49,"byteOffset":0,"byteLength":600},{"buffer":50,"byteOffset":0,"byteLength":600},{"buffer":51,"byteOffset":0,"byteLength":600},{"buffer":52,"byteOffset":0,"byteLength":7704},{"buffer":53,"byteOffset":0,"byteLength":7704},{"buffer":54,"byteOffset":0,"byteLength":7704},{"buffer":55,"byteOffset":0,"byteLength":7704},{"buffer":56,"byteOffset":0,"byteLength":7704},{"buffer":57,"byteOffset":0,"byteLength":24576},{"buffer":58,"byteOffset":0,"byteLength":12288},{"buffer":59,"byteOffset":0,"byteLength":4096},{"buffer":60,"byteOffset":0,"byteLength":1944},{"buffer":61,"byteOffset":0,"byteLength":648},{"buffer":62,"byteOffset":0,"byteLength":4608},{"buffer":63,"byteOffset":0,"byteLength":2328},{"buffer":64,"byteOffset":0,"byteLength":776},{"buffer":65,"byteOffset":0,"byteLength":288},{"buffer":66,"byteOffset":0,"byteLength":168},{"buffer":67,"byteOffset":0,"byteLength":56},{"buffer":68,"byteOffset":0,"byteLength":168},{"buffer":69,"byteOffset":0,"byteLength":168},{"buffer":70,"byteOffset":0,"byteLength":168},{"buffer":71,"byteOffset":0,"byteLength":168},{"buffer":72,"byteOffset":0,"byteLength":168},{"buffer":73,"byteOffset":0,"byteLength":168},{"buffer":74,"byteOffset":0,"byteLength":168},{"buffer":75,"byteOffset":0,"byteLength":168},{"buffer":76,"byteOffset":0,"byteLength":168},{"buffer":77,"byteOffset":0,"byteLength":168},{"buffer":78,"byteOffset":0,"byteLength":168},{"buffer":79,"byteOffset":0,"byteLength":168},{"buffer":80,"byteOffset":0,"byteLength":168},{"buffer":81,"byteOffset":0,"byteLength":168},{"buffer":82,"byteOffset":0,"byteLength":168},{"buffer":83,"byteOffset":0,"byteLength":168},{"buffer":84,"byteOffset":0,"byteLength":168},{"buffer":85,"byteOffset":0,"byteLength":168},{"buffer":86,"byteOffset":0,"byteLength":168},{"buffer":87,"byteOffset":0,"byteLength":168},{"buffer":88,"byteOffset":0,"byteLength":168},{"buffer":89,"byteOffset":0,"byteLength":168},{"buffer":90,"byteOffset":0,"byteLength":168},{"buffer":91,"byteOffset":0,"byteLength":168},{"buffer":92,"byteOffset":0,"byteLength":168},{"buffer":93,"byteOffset":0,"byteLength":168},{"buffer":94,"byteOffset":0,"byteLength":168},{"buffer":95,"byteOffset":0,"byteLength":168},{"buffer":96,"byteOffset":0,"byteLength":168},{"buffer":97,"byteOffset":0,"byteLength":168},{"buffer":98,"byteOffset":0,"byteLength":168},{"buffer":99,"byteOffset":0,"byteLength":168},{"buffer":100,"byteOffset":0,"byteLength":168},{"buffer":101,"byteOffset":0,"byteLength":168},{"buffer":102,"byteOffset":0,"byteLength":168},{"buffer":103,"byteOffset":0,"byteLength":168},{"buffer":104,"byteOffset":0,"byteLength":168},{"buffer":105,"byteOffset":0,"byteLength":168},{"buffer":106,"byteOffset":0,"byteLength":168},{"buffer":107,"byteOffset":0,"byteLength":168},{"buffer":108,"byteOffset":0,"byteLength":168},{"buffer":109,"byteOffset":0,"byteLength":168},{"buffer":110,"byteOffset":0,"byteLength":168},{"buffer":111,"byteOffset":0,"byteLength":168},{"buffer":112,"byteOffset":0,"byteLength":168},{"buffer":113,"byteOffset":0,"byteLength":168},{"buffer":114,"byteOffset":0,"byteLength":168},{"buffer":115,"byteOffset":0,"byteLength":168},{"buffer":116,"byteOffset":0,"byteLength":168},{"buffer":117,"byteOffset":0,"byteLength":168},{"buffer":118,"byteOffset":0,"byteLength":168},{"buffer":119,"byteOffset":0,"byteLength":168},{"buffer":120,"byteOffset":0,"byteLength":168},{"buffer":121,"byteOffset":0,"byteLength":168},{"buffer":122,"byteOffset":0,"byteLength":168},{"buffer":123,"byteOffset":0,"byteLength":168},{"buffer":124,"byteOffset":0,"byteLength":168},{"buffer":125,"byteOffset":0,"byteLength":168},{"buffer":126,"byteOffset":0,"byteLength":168},{"buffer":127,"byteOffset":0,"byteLength":168},{"buffer":128,"byteOffset":0,"byteLength":168},{"buffer":129,"byteOffset":0,"byteLength":168},{"buffer":130,"byteOffset":0,"byteLength":168},{"buffer":131,"byteOffset":0,"byteLength":168},{"buffer":132,"byteOffset":0,"byteLength":168},{"buffer":133,"byteOffset":0,"byteLength":168},{"buffer":134,"byteOffset":0,"byteLength":168},{"buffer":135,"byteOffset":0,"byteLength":168},{"buffer":136,"byteOffset":0,"byteLength":168}]}